<?xml version="1.0" encoding="UTF-8"?>
<svg width="1200pt" height="1200pt" version="1.1" viewBox="0 0 1200 1200" xmlns="http://www.w3.org/2000/svg">
 <path d="m543.75 375h-375c-1.1211-0.14453-2.2539-0.14453-3.375 0-1.5625 0.33594-3.0742 0.87109-4.5 1.5938l-1.0312 0.5625c-1.4766 0.80469-2.8359 1.8164-4.0312 3l-150 150c-1.2734 1.2578-2.375 2.6758-3.2812 4.2188l-0.5625 1.0312c-0.73828 1.4492-1.2773 2.9961-1.5938 4.5938-0.29297 1.2266-0.41797 2.4883-0.375 3.75v637.5c0 4.9727 1.9766 9.7422 5.4922 13.258 3.5156 3.5156 8.2852 5.4922 13.258 5.4922h525c4.9727 0 9.7422-1.9766 13.258-5.4922 3.5156-3.5156 5.4922-8.2852 5.4922-13.258v-787.5c0-4.9727-1.9766-9.7422-5.4922-13.258-3.5156-3.5156-8.2852-5.4922-13.258-5.4922zm-393.75 64.031v85.969h-85.969zm375 723.47h-487.5v-600h131.25c4.9727 0 9.7422-1.9766 13.258-5.4922 3.5156-3.5156 5.4922-8.2852 5.4922-13.258v-131.25h337.5z"/>
 <path d="m1181.2 375h-375c-1.1211-0.14453-2.2539-0.14453-3.375 0-1.5625 0.33594-3.0742 0.87109-4.5 1.5938l-1.0312 0.5625c-1.4766 0.80469-2.8359 1.8164-4.0312 3l-150 150c-1.1602 1.2148-2.168 2.5703-3 4.0312l-0.5625 1.0312c-0.73828 1.4492-1.2773 2.9961-1.5938 4.5938-0.40625 1.2734-0.625 2.6016-0.65625 3.9375v637.5c0 4.9727 1.9766 9.7422 5.4922 13.258 3.5156 3.5156 8.2852 5.4922 13.258 5.4922h525c4.9727 0 9.7422-1.9766 13.258-5.4922 3.5156-3.5156 5.4922-8.2852 5.4922-13.258v-787.5c0-4.9727-1.9766-9.7422-5.4922-13.258-3.5156-3.5156-8.2852-5.4922-13.258-5.4922zm-393.75 64.031v85.969h-85.969zm375 723.47h-487.5v-600h131.25c4.9727 0 9.7422-1.9766 13.258-5.4922 3.5156-3.5156 5.4922-8.2852 5.4922-13.258v-131.25h337.5z"/>
 <path d="m748.69 168.75h151.31v150c0 6.6992 3.5742 12.887 9.375 16.238 5.8008 3.3477 12.949 3.3477 18.75 0 5.8008-3.3516 9.375-9.5391 9.375-16.238v-168.75c0-4.9727-1.9766-9.7422-5.4922-13.258-3.5156-3.5156-8.2852-5.4922-13.258-5.4922h-170.06c-6.4531-48.461-36.117-90.734-79.492-113.29-43.375-22.555-95.016-22.555-138.39 0-43.375 22.551-73.039 64.824-79.492 113.29h-170.06c-4.9727 0-9.7422 1.9766-13.258 5.4922-3.5156 3.5156-5.4922 8.2852-5.4922 13.258v168.75c0 6.6992 3.5742 12.887 9.375 16.238 5.8008 3.3477 12.949 3.3477 18.75 0 5.8008-3.3516 9.375-9.5391 9.375-16.238v-150h151.31c6.4531 48.461 36.117 90.734 79.492 113.29 43.375 22.555 95.016 22.555 138.39 0 43.375-22.551 73.039-64.824 79.492-113.29zm-148.69 93.75c-29.836 0-58.453-11.852-79.551-32.949-21.098-21.098-32.949-49.715-32.949-79.551s11.852-58.453 32.949-79.551c21.098-21.098 49.715-32.949 79.551-32.949s58.453 11.852 79.551 32.949c21.098 21.098 32.949 49.715 32.949 79.551s-11.852 58.453-32.949 79.551c-21.098 21.098-49.715 32.949-79.551 32.949z"/>
 <path d="m181.97 654.66c-4.8086-4.3438-11.52-5.8945-17.746-4.1016-6.2266 1.7891-11.09 6.668-12.859 12.902-1.7656 6.2305-0.19141 12.938 4.168 17.73l96.844 96.938c3.5156 3.5195 8.2891 5.5 13.266 5.5s9.75-1.9805 13.266-5.5l128.06-128.16c3.8086-3.4414 6.043-8.293 6.1797-13.422 0.13281-5.1328-1.8398-10.094-5.4648-13.73-3.6211-3.6367-8.5781-5.625-13.707-5.5078-5.1328 0.11719-9.9922 2.332-13.445 6.1289l-114.84 114.84z"/>
 <path d="m380.53 885.94-114.84 114.84-83.719-83.625c-4.8086-4.3438-11.52-5.8945-17.746-4.1016-6.2266 1.7891-11.09 6.668-12.859 12.902-1.7656 6.2305-0.19141 12.938 4.168 17.73l96.844 96.938c3.5156 3.5195 8.2891 5.5 13.266 5.5s9.75-1.9805 13.266-5.5l128.06-128.16c3.8086-3.4414 6.043-8.293 6.1797-13.422 0.13281-5.1328-1.8398-10.094-5.4648-13.73-3.6211-3.6367-8.5781-5.625-13.707-5.5078-5.1328 0.11719-9.9922 2.332-13.445 6.1289z"/>
 <path d="m830.53 631.97 61.688 61.781-61.688 61.781c-3.9688 3.3984-6.3398 8.2969-6.5391 13.52-0.20313 5.2188 1.7812 10.285 5.4766 13.98s8.7617 5.6797 13.98 5.4766c5.2227-0.19922 10.121-2.5703 13.52-6.5391l61.781-61.688 61.781 61.688c4.8281 4.1328 11.418 5.543 17.512 3.7383 6.0977-1.8008 10.863-6.5664 12.664-12.664 1.8047-6.0938 0.39453-12.684-3.7383-17.512l-61.688-61.781 61.688-61.781c4.1328-4.8281 5.543-11.418 3.7383-17.512-1.8008-6.0977-6.5664-10.863-12.664-12.664-6.0938-1.8047-12.684-0.39453-17.512 3.7383l-61.781 61.688-61.781-61.688c-4.8281-4.1328-11.418-5.543-17.512-3.7383-6.0977 1.8008-10.863 6.5664-12.664 12.664-1.8047 6.0938-0.39453 12.684 3.7383 17.512z"/>
 <path d="m1007 868.03c-3.5117-3.4922-8.2656-5.4531-13.219-5.4531s-9.707 1.9609-13.219 5.4531l-61.781 61.688-61.781-61.688c-4.8281-4.1328-11.418-5.543-17.512-3.7383-6.0977 1.8008-10.863 6.5664-12.664 12.664-1.8047 6.0938-0.39453 12.684 3.7383 17.512l61.688 61.781-61.688 61.781c-3.9688 3.3984-6.3398 8.2969-6.5391 13.52-0.20313 5.2188 1.7812 10.285 5.4766 13.98s8.7617 5.6797 13.98 5.4766c5.2227-0.19922 10.121-2.5703 13.52-6.5391l61.781-61.688 61.781 61.688c4.8281 4.1328 11.418 5.543 17.512 3.7383 6.0977-1.8008 10.863-6.5664 12.664-12.664 1.8047-6.0938 0.39453-12.684-3.7383-17.512l-61.688-61.781 61.688-61.781c3.4922-3.5117 5.4531-8.2656 5.4531-13.219s-1.9609-9.707-5.4531-13.219z"/>
</svg>
