<?xml version="1.0" encoding="UTF-8"?>
<svg width="1200pt" height="1200pt" version="1.1" viewBox="0 0 1200 1200" xmlns="http://www.w3.org/2000/svg">
 <path d="m708 830.88h-88.801c-3.4258 0.042969-6.7344 1.2539-9.3789 3.4375-2.6406 2.1836-4.457 5.207-5.1406 8.5625-2.5195 10.32-24 29.281-51.238 29.281-27.238 0-48.719-18.961-51.359-29.281h-0.003906c-0.68359-3.3555-2.4961-6.3789-5.1406-8.5625-2.6406-2.1836-5.9492-3.3945-9.3789-3.4375h-294.96v-478.32h48v396c0.003907 1.4727 0.24609 2.9297 0.71875 4.3203v1.082c0.32031 0.97266 0.76563 1.8984 1.3203 2.7578l0.96094 1.0781v0.003906c0.53125 0.77344 1.1328 1.4961 1.7969 2.1602l1.5586 0.96094 2.0391 1.3203 0.003906-0.003907c28.141 12.121 58.523 18.172 89.16 17.762 22.984-0.11719 45.523-6.3711 65.281-18.121 16.398-10.707 35.203-17.18 54.719-18.84h8.6406c26.668 2.0195 51.641 13.867 70.078 33.242 2.8633 3.2227 6.9727 5.0586 11.281 5.0391 0.99609 0.10547 2.0039 0.10547 3 0 0.80078 0.054688 1.6016 0.054688 2.3984 0h3.2422c4.3008-0.011718 8.3984-1.8438 11.277-5.0391 17.199-18.43 40.371-30.164 65.402-33.121 22.293-1.4062 44.484 4.0391 63.598 15.602 4.625 1.5039 9.6875 0.74609 13.672-2.043 3.9805-2.7891 6.4219-7.2852 6.5898-12.148 0.16797-4.8594-1.957-9.5156-5.7383-12.57-21.652-12.492-46.289-18.879-71.281-18.48-24.18 0.38281-47.824 7.1758-68.52 19.68v-416.88c34.305-19.859 75.719-23.254 112.8-9.2422 5.0156 1.9102 10.668 0.99609 14.828-2.3945 4.1602-3.3906 6.1953-8.7422 5.3398-14.039s-4.4727-9.7383-9.4883-11.645c-47.078-17.949-99.848-12.797-142.56 13.922-18.602-13.078-84-49.801-168 2.5195-49.922 31.078-123-0.60156-123.72-0.96094-4.6523-2.0703-10.039-1.6172-14.281 1.1992-4.0938 2.6484-6.6445 7.125-6.8398 12v14.398h-62.277c-3.9805 0-7.7969 1.582-10.609 4.3945s-4.3906 6.6289-4.3906 10.605v508.8c0 3.9805 1.5781 7.793 4.3906 10.609 2.8125 2.8125 6.6289 4.3906 10.609 4.3906h300c16.797 25.391 45.215 40.664 75.66 40.664 30.445 0 58.859-15.273 75.66-40.664h79.078c5.3594 0 10.312-2.8594 12.992-7.5 2.6758-4.6406 2.6758-10.359 0-15-2.6797-4.6406-7.6328-7.5-12.992-7.5zm-307.2-510c66.961-41.641 116.76-15.719 132-5.1602v416.28c-20.766-12.301-44.387-18.961-68.52-19.32-28.375-0.22656-56.152 8.1406-79.68 24-16.621 9.6406-35.645 14.348-54.84 13.559-20.445-0.79297-40.664-4.5938-60-11.277v-409.44c30.238 9 85.918 19.559 131.04-8.6406z"/>
 <path d="m642.72 557.16h176.04c4.8281 15.781 16.969 28.27 32.605 33.547 15.641 5.2812 32.863 2.7031 46.27-6.9219s21.359-25.121 21.359-41.625-7.9531-32-21.359-41.625-30.629-12.203-46.27-6.9258c-15.637 5.2812-27.777 17.77-32.605 33.551h-176.04c-5.3594 0-10.309 2.8594-12.988 7.5-2.6797 4.6406-2.6797 10.359 0 15 2.6797 4.6406 7.6289 7.5 12.988 7.5zm224.88-36h0.003906c5.6328 0 11.035 2.2383 15.016 6.2227 3.9844 3.9805 6.2227 9.3828 6.2227 15.016 0 5.6328-2.2383 11.039-6.2227 15.02-3.9805 3.9844-9.3828 6.2227-15.016 6.2227-5.6328 0-11.039-2.2383-15.02-6.2227-3.9844-3.9805-6.2227-9.3867-6.2227-15.02 0.0625-5.5781 2.332-10.906 6.3125-14.82 3.9805-3.9102 9.3477-6.0898 14.93-6.0586z"/>
 <path d="m930.48 394.08v33.961h-288c-5.3594 0-10.312 2.8594-12.992 7.5-2.6797 4.6406-2.6797 10.359 0 15 2.6797 4.6406 7.6328 7.5 12.992 7.5h303c3.8945-0.125 7.5859-1.7578 10.297-4.5586 2.7109-2.8008 4.2266-6.543 4.2227-10.441v-49.078c15.738-4.832 28.188-16.945 33.441-32.543 5.2578-15.602 2.6836-32.777-6.9219-46.148-9.6016-13.371-25.059-21.301-41.52-21.301s-31.918 7.9297-41.52 21.301c-9.6055 13.371-12.18 30.547-6.9219 46.148 5.2539 15.598 17.703 27.711 33.441 32.543zm14.758-70.078c5.582 0.03125 10.922 2.2695 14.859 6.2305 3.9336 3.957 6.1406 9.3086 6.1406 14.891 0 5.5781-2.207 10.934-6.1445 14.891-3.9336 3.957-9.2734 6.1953-14.855 6.2266s-10.945-2.1445-14.926-6.0586c-3.9805-3.9102-6.25-9.2383-6.3125-14.82-0.066406-5.6641 2.1484-11.117 6.1406-15.133 3.9961-4.0156 9.4336-6.2578 15.098-6.2266z"/>
 <path d="m937.56 630.36h-294.84c-5.3594 0-10.309 2.8594-12.988 7.5-2.6797 4.6406-2.6797 10.359 0 15 2.6797 4.6406 7.6289 7.5 12.988 7.5h294.84c4.832 15.781 16.973 28.27 32.609 33.551 15.637 5.2773 32.859 2.6992 46.27-6.9258 13.406-9.625 21.359-25.121 21.359-41.625s-7.9531-32-21.359-41.625c-13.41-9.625-30.633-12.203-46.27-6.9219-15.637 5.2773-27.777 17.766-32.609 33.547zm70.441 15c-0.03125 5.5977-2.2734 10.957-6.2383 14.91-3.9609 3.957-9.3281 6.1836-14.926 6.2031-5.5977 0.023438-10.977-2.168-14.969-6.0938-3.9922-3.9258-6.2734-9.2695-6.3438-14.867-0.074219-5.5977 2.0664-10.996 5.9531-15.027 3.8867-4.0273 9.207-6.3594 14.805-6.4844 5.7461-0.16406 11.309 2.0234 15.41 6.0547 4.0977 4.0273 6.375 9.5586 6.3086 15.305z"/>
 <path d="m998.04 827.04v-83.039c0-3.9766-1.5781-7.793-4.3906-10.605-2.8164-2.8125-6.6289-4.3945-10.609-4.3945h-205.8c-5.3555 0-10.309 2.8594-12.988 7.5s-2.6797 10.359 0 15 7.6328 7.5 12.988 7.5h190.8v67.68c-15.781 4.832-28.27 16.969-33.547 32.609-5.2812 15.637-2.7031 32.859 6.9219 46.27 9.625 13.406 25.121 21.355 41.625 21.355 16.508 0 32-7.9492 41.625-21.355 9.625-13.41 12.203-30.633 6.9258-46.27-5.2812-15.641-17.77-27.777-33.551-32.609zm-14.762 69.84h0.003906c-5.6094-0.03125-10.973-2.293-14.914-6.2852-3.9375-3.9922-6.1289-9.3867-6.0859-14.996 0.042969-5.6055 2.3164-10.969 6.3125-14.898 4-3.9297 9.3984-6.1094 15.008-6.0586 5.6094 0.054687 10.965 2.3359 14.887 6.3438 3.9258 4.0039 6.0938 9.4062 6.0312 15.016-0.0625 5.582-2.332 10.91-6.3125 14.82-3.9805 3.9141-9.3477 6.0898-14.926 6.0586z"/>
 <path d="m860.4 912v-62.641c0-3.9766-1.5781-7.793-4.3906-10.605s-6.6289-4.3945-10.609-4.3945h-68.16c-5.3555 0-10.309 2.8594-12.988 7.5s-2.6797 10.359 0 15 7.6328 7.5 12.988 7.5h53.16v49.68c-15.32 5.8945-26.867 18.801-31.027 34.68s-0.42188 32.789 10.043 45.434c10.465 12.648 26.375 19.484 42.754 18.371 16.375-1.1133 31.215-10.043 39.871-23.988 8.6562-13.945 10.07-31.207 3.7969-46.379-6.2695-15.168-19.457-26.391-35.438-30.156zm-12 70.801c-5.6367 0.03125-11.059-2.1797-15.066-6.1523-4.0078-3.9688-6.2695-9.3672-6.293-15.008-0.019531-5.6406 2.2031-11.059 6.1797-15.055 3.9766-4 9.3828-6.2539 15.02-6.2656 5.6406-0.011718 11.055 2.2227 15.047 6.207 3.9922 3.9844 6.2344 9.3906 6.2344 15.031 0.066407 5.6445-2.1328 11.078-6.1016 15.09-3.9648 4.0156-9.375 6.2734-15.02 6.2734z"/>
 <path d="m750 365.64h42.602c3.9766 0 7.793-1.582 10.605-4.3945s4.3945-6.6289 4.3945-10.605v-62.641c16.051-3.8242 29.281-15.145 35.539-30.41 6.2578-15.27 4.7812-32.617-3.9688-46.605-8.75-13.992-23.703-22.91-40.172-23.965-16.465-1.0547-32.434 5.8867-42.895 18.648-10.465 12.758-14.141 29.777-9.8789 45.719 4.2617 15.941 15.941 28.855 31.375 34.691v49.922h-27.602c-5.3594 0-10.312 2.8594-12.992 7.5-2.6758 4.6406-2.6758 10.359 0 15 2.6797 4.6406 7.6328 7.5 12.992 7.5zm45.602-148.56v-0.003906c5.6367-0.03125 11.059 2.1836 15.066 6.1523 4.0078 3.9688 6.2695 9.3672 6.293 15.008 0.019531 5.6406-2.2031 11.059-6.1797 15.059s-9.3828 6.2539-15.02 6.2617c-5.6406 0.011718-11.055-2.2227-15.047-6.207-3.9922-3.9844-6.2344-9.3906-6.2344-15.031 0-5.6133 2.2227-10.996 6.1797-14.977 3.957-3.9805 9.3281-6.2305 14.941-6.2656z"/>
</svg>
