<?xml version="1.0" encoding="UTF-8"?>
<svg width="1200pt" height="1200pt" version="1.1" viewBox="0 0 1200 1200" xmlns="http://www.w3.org/2000/svg">
 <path d="m571.03 354.84h-289.45c-6.6562 0-12-5.3438-12-12s5.3438-12 12-12h289.45c6.6562 0 12 5.3438 12 12s-5.3438 12-12 12zm236.81 116.58c0-6.6562-5.3438-12-12-12h-514.26c-6.6562 0-12 5.3438-12 12s5.3438 12 12 12h514.31c6.6562 0 12-5.3438 12-12zm0 128.58c0-6.6562-5.3438-12-12-12h-514.26c-6.6562 0-12 5.3438-12 12s5.3438 12 12 12h514.31c6.6562 0 12-5.3438 12-12zm0 128.58c0-6.6562-5.3438-12-12-12h-514.26c-6.6562 0-12 5.3438-12 12s5.3438 12 12 12h514.31c6.6562 0 12-5.3438 12-12zm-97.125 128.58c0-6.6562-5.3438-12-12-12h-417.14c-6.6562 0-12 5.3438-12 12s5.3438 12 12 12h417.19c6.6562 0 12-5.3438 12-12zm199.6-450v247.13c0 9.9375-8.0625 18-18 18s-18-8.0625-18-18v-229.13h-200.58c-31.219 0-56.578-25.359-56.578-56.578v-200.58h-406.31c-4.2656 0-7.6875 3.4688-7.6875 7.7344v848.58c0 4.2656 3.4688 7.6875 7.6875 7.6875h644.34c9.9375 0 18 8.0625 18 18s-8.0625 18-18 18h-644.34c-24.094 0-43.688-19.594-43.688-43.688v-848.58c0-24.094 19.594-43.734 43.688-43.734h424.31c2.3438 0 4.5469 0.46875 6.5625 1.2656 0.09375 0.046875 0.1875 0.046875 0.28125 0.09375 2.2031 0.89062 4.2188 2.25 5.9062 3.8906l257.16 257.16c1.6875 1.6875 3 3.6562 3.8906 5.9062 0.046875 0.09375 0.046875 0.1875 0.09375 0.28125 0.79688 2.0156 1.2656 4.2188 1.2656 6.5625zm-236.63-18h175.13l-195.71-195.71v175.13c0 11.344 9.2344 20.578 20.578 20.578zm230.29 599.21c19.547-86.578 32.953-99.984 119.53-119.53 5.4375-1.2188 9.375-6.0938 9.375-11.719s-3.8906-10.453-9.375-11.719c-86.531-19.547-99.938-32.953-119.53-119.53-1.2188-5.4375-6.0938-9.375-11.719-9.375s-10.453 3.8906-11.719 9.375c-19.547 86.531-32.953 99.938-119.53 119.53-5.4375 1.2188-9.375 6.0938-9.375 11.719s3.8906 10.453 9.375 11.719c86.531 19.547 99.938 32.953 119.53 119.53 1.2188 5.4844 6.0938 9.375 11.719 9.375s10.453-3.8906 11.719-9.375zm-11.672-213.28c15.281 46.312 35.719 66.797 82.078 82.078-46.312 15.281-66.797 35.719-82.078 82.078-15.281-46.359-35.766-66.797-82.078-82.078 46.312-15.281 66.797-35.766 82.078-82.078z"/>
</svg>
