<?xml version="1.0" encoding="UTF-8"?>
<svg width="1200pt" height="1200pt" version="1.1" viewBox="0 0 1200 1200" xmlns="http://www.w3.org/2000/svg">
 <path d="m914.86 707.39c-18.234-16.172-46.031-14.812-62.578 3.0938l-90.281 97.5c-6.1406-27.188-30.328-46.547-58.219-46.547h-156.94l-17.25-9.9844c-19.547-11.578-41.906-17.531-64.641-17.297h-65.859c-34.312-0.28125-67.312 13.359-91.406 37.781l-82.922 80.953-19.781-19.781h-0.046875c-5.0156-5.0156-13.172-5.0156-18.188 0l-68.766 68.766c-5.0156 5.0625-5.0156 13.219 0 18.234l216.14 216.14c5.0156 5.0156 13.172 5.0156 18.188 0l68.766-68.766v-0.046875c5.0156-5.0156 5.0156-13.172 0-18.188l-20.297-20.297 10.688-12.234c10.031-11.953 24.891-18.75 40.5-18.469h238.18c44.344 0 85.828-21.797 111.05-58.266l123.05-169.78c14.484-19.969 10.312-47.906-9.375-62.812zm-571.64 401.53-197.95-197.95 50.578-50.578 197.95 198zm560.16-353.81-123.05 169.74c-20.25 29.906-54.047 47.812-90.188 47.672h-238.18c-23.016-0.28125-45 9.7031-59.906 27.281l-9.5156 10.922-139.6-139.6 82.688-80.719 0.046875-0.046875c19.266-19.781 45.797-30.797 73.406-30.469h65.859c18.188-0.23438 36.141 4.5469 51.797 13.875l20.203 11.672c1.9688 1.125 4.1719 1.7344 6.4219 1.7344h160.4c18.469 0.32812 33.281 15.422 33.281 33.891s-14.812 33.562-33.281 33.891h-136.69c-3.5156-0.09375-6.8906 1.2188-9.375 3.6562s-3.9375 5.7656-3.9375 9.2344 1.4531 6.7969 3.9375 9.2344 5.8594 3.75 9.375 3.6562h136.69c16.875-0.046875 32.953-7.2188 44.297-19.734l123.14-133.03c3.4688-3.7969 8.3906-6 13.547-6.1406s10.125 1.8281 13.828 5.4844c4.4062 3 7.3594 7.6406 8.2969 12.891 0.89062 5.2031-0.375 10.594-3.5156 14.906zm171.61-675.24h-159.94c-5.9062 0-10.734 4.8281-10.734 10.734v14.859l-195.79-45.141c-0.46875-0.09375-0.98438-0.14062-1.4531-0.1875-38.344-3.5156-112.69 71.719-142.5 105.8h-193.78c-3.4219 0-6.6562 1.3125-9.0938 3.75s-3.7969 5.6719-3.7969 9.0938v510.42c0 3.4219 1.3594 6.7031 3.7969 9.0938 2.4375 2.4375 5.7188 3.7969 9.0938 3.7969h401.48c7.0781 0 12.844-5.7656 12.844-12.891v-291.66c2.6719 0.32813 5.3906 0.51563 8.0625 0.51563 10.219-0.32813 20.25-2.625 29.531-6.8438l81.375-32.156v12.375c0 5.9531 4.8281 10.781 10.781 10.781h160.22c5.9531 0 10.781-4.8281 10.781-10.781v-280.82c-0.046875-5.9531-4.875-10.734-10.781-10.734zm-691.31 596.44v-484.64h375.71v87.703c-11.812 1.3594-23.719 1.5469-35.531 0.5625h-1.3125c-45.422 2.2969-81.75 32.953-83.906 58.781-0.51562 6.1875 0.14063 27 30.609 33.75l90.141 19.969v283.87zm401.44-421.55c8.0625 1.4062 16.266 1.875 24.422 1.4531-6.9375 7.125-15.234 12.75-24.422 16.594zm29.672 116.48c-12.375 6.0938-26.672 7.0312-39.75 2.6719l-101.11-22.406c-9.6094-2.1094-14.297-5.8125-13.875-10.969 1.2188-14.391 28.125-37.125 62.953-39.094 75.609 5.2031 99.234-25.219 116.53-47.438 2.5781-3.2812 4.9688-6.4219 7.3594-9.0938v-0.046875c3.1875-3.8438 3.3281-9.375 0.32812-13.406-3-3.9844-8.3906-5.3906-12.984-3.375-15.328 7.125-32.672 8.8125-49.078 4.875v-54.188c-0.046875-7.0781-5.8125-12.844-12.891-12.844h-178.78c39.938-42.938 90.656-84.469 110.53-84.469h0.5625l199.78 46.031c0 34.547-0.046875 69.047-0.09375 103.55-0.046875 34.922-0.09375 69.891-0.09375 104.91zm249.52-10.547h-138.74c0-43.266 0.046875-86.438 0.14062-129.61 0.046875-37.219 0.09375-74.484 0.09375-111.75v-17.953l138.52-0.046874zm-638.58-115.08c0-7.0781 5.7656-12.844 12.891-12.844h265.92c3.4688-0.09375 6.8438 1.2188 9.3281 3.6562s3.9375 5.7656 3.9375 9.2344-1.4531 6.7969-3.9375 9.2344-5.8594 3.75-9.3281 3.6562h-265.92c-3.4688 0-6.75-1.3594-9.1406-3.7969-2.4375-2.4375-3.75-5.7188-3.75-9.1406zm-3.7031 62.016c0-3.4219 1.3594-6.7031 3.75-9.0938 2.4375-2.4375 5.6719-3.7969 9.0938-3.7969h141.94c7.125 0 12.891 5.7656 12.891 12.891s-5.7656 12.891-12.891 12.891h-141.94c-7.0781 0-12.844-5.7656-12.844-12.891zm0 62.016c0-3.4219 1.3594-6.7031 3.75-9.0938 2.4375-2.3906 5.6719-3.75 9.0938-3.75h141.94c6.9844 0.1875 12.516 5.9062 12.516 12.844 0 6.9844-5.5312 12.656-12.516 12.891h-141.94c-3.4219 0-6.6562-1.3594-9.0938-3.7969-2.3906-2.3906-3.75-5.6719-3.75-9.0938zm295.36 62.016c0 7.125-5.7656 12.891-12.844 12.891h-265.92c-3.5156 0.09375-6.8906-1.2188-9.375-3.6562-2.4844-2.3906-3.9375-5.7188-3.9375-9.2344 0-3.4688 1.4531-6.7969 3.9375-9.2344s5.8594-3.75 9.375-3.6094h265.92c7.0781 0 12.844 5.7656 12.844 12.844zm0 62.062v0.046875c0 7.0781-5.7656 12.844-12.844 12.844h-265.92c-3.5156 0.14062-6.8906-1.1719-9.375-3.6094s-3.9375-5.7656-3.9375-9.2344c0-3.5156 1.4531-6.8438 3.9375-9.2344 2.4844-2.4375 5.8594-3.75 9.375-3.6562h265.92c7.0781 0 12.844 5.7656 12.844 12.891zm0 62.016v0.046875c0 7.125-5.7656 12.844-12.844 12.844h-265.92c-3.5156 0.14062-6.8906-1.1719-9.375-3.6094s-3.9375-5.7656-3.9375-9.2344c0-3.5156 1.4531-6.8438 3.9375-9.2344 2.4844-2.4375 5.8594-3.75 9.375-3.6562h265.92c3.375 0 6.6562 1.3594 9.0938 3.7969 2.3906 2.3906 3.75 5.6719 3.75 9.0938zm0 62.016v0.046875c0 7.125-5.7656 12.891-12.844 12.891h-265.92c-7.125 0-12.891-5.7656-12.891-12.891s5.7656-12.891 12.891-12.891h265.92c7.0781 0 12.844 5.7656 12.844 12.891z"/>
</svg>
