<?xml version="1.0" encoding="UTF-8"?>
<svg width="1200pt" height="1200pt" version="1.1" viewBox="0 0 1200 1200" xmlns="http://www.w3.org/2000/svg">
 <path d="m881.53 243.05h-23.391v-24.469c0-33.609-27.328-60.938-60.938-60.938h-351.19c-2.3906 0-4.6875 0.9375-6.375 2.625l-179.48 179.48c-1.6875 1.6875-2.625 3.9844-2.625 6.375v549.89c0 33.609 27.328 60.938 60.938 60.938h23.391v24.469c0 33.609 27.328 60.938 60.938 60.938h478.74c33.609 0 60.938-27.328 60.938-60.938v-677.44c0-33.609-27.328-60.938-60.938-60.938zm-444.56-54.609v105.75c0 23.672-19.266 42.891-42.891 42.891h-105.75zm-161.39 707.58v-540.89h118.5c33.609 0 60.938-27.328 60.938-60.938v-118.5h342.14c23.672 0 42.891 19.266 42.891 42.891v677.44c0 23.672-19.266 42.891-42.891 42.891h-478.69c-23.625 0-42.891-19.266-42.891-42.891zm648.84 85.406c0 23.672-19.266 42.891-42.891 42.891h-478.69c-23.672 0-42.891-19.266-42.891-42.891v-24.469h437.26c33.609 0 60.938-27.328 60.938-60.938v-634.92h23.391c23.672 0 42.891 19.266 42.891 42.891zm-136.82-420.52c0 4.9688-4.0312 9.0469-9.0469 9.0469l-285.14-0.046875c-4.9688 0-9.0469-4.0312-9.0469-9.0469 0-4.9688 4.0312-9.0469 9.0469-9.0469h285.19c4.9688 0.046875 9 4.0781 9 9.0938zm-303.24 47.719c0-4.9688 4.0312-9.0469 9.0469-9.0469h227.06c4.9688 0 9.0469 4.0312 9.0469 9.0469 0 4.9688-4.0312 9.0469-9.0469 9.0469h-227.06c-5.0156 0-9.0469-4.0312-9.0469-9.0469zm-78.141-72.328h-59.438c-10.312 0-18.75 8.3906-18.75 18.75v59.438c0 10.312 8.3906 18.75 18.75 18.75h59.438c10.312 0 18.75-8.3906 18.75-18.75v-59.438c0-10.312-8.3906-18.75-18.75-18.75zm0.70312 78.188c0 0.375-0.32812 0.70312-0.70312 0.70312h-59.438c-0.375 0-0.70312-0.32812-0.70312-0.70312v-59.438c0-0.375 0.32812-0.70312 0.70312-0.70312h59.438c0.375 0 0.70312 0.32812 0.70312 0.70312zm229.31-120.14c4.9688 0 9.0469-4.0312 9.0469-9.0469v-7.5938c2.3906 0.14062 4.7344 0.46875 7.125 0.46875 69.328 0 125.72-56.391 125.72-125.72 0-69.332-56.391-125.72-125.72-125.72-69.328 0.046875-125.76 56.438-125.76 125.76 0 2.3906 0.375 4.7344 0.46875 7.125h-7.5938c-4.9688 0-9.0469 4.0312-9.0469 9.0469 0.046875 69.281 56.438 125.68 125.76 125.68zm-91.5-141.84c0-59.344 48.281-107.67 107.67-107.67s107.67 48.281 107.67 107.67-48.281 107.67-107.67 107.67c-2.3906 0-4.7344-0.32812-7.125-0.46875v-91.031c0-4.9688-4.0312-9.0469-9.0469-9.0469h-91.031c-0.14062-2.3906-0.46875-4.7344-0.46875-7.125zm82.453 25.172v98.25c-52.172-4.3594-93.891-46.078-98.25-98.25zm-142.82 358.26c0-4.9688 4.0312-9.0469 9.0469-9.0469h227.06c4.9688 0 9.0469 4.0312 9.0469 9.0469 0 4.9688-4.0312 9.0469-9.0469 9.0469h-227.06c-5.0156 0-9.0469-4.0781-9.0469-9.0469zm303.24-47.766c0 4.9688-4.0312 9.0469-9.0469 9.0469h-285.14c-4.9688 0-9.0469-4.0312-9.0469-9.0469 0-4.9688 4.0312-9.0469 9.0469-9.0469h285.19c4.9688 0.046875 9 4.0781 9 9.0469zm-381.37-24.562h-59.438c-10.312 0-18.75 8.3906-18.75 18.75v59.438c0 10.312 8.3906 18.75 18.75 18.75h59.438c10.312 0 18.75-8.3906 18.75-18.75v-59.438c0-10.359-8.3906-18.75-18.75-18.75zm0.70313 78.188c0 0.375-0.32813 0.70312-0.70313 0.70312h-59.438c-0.375 0-0.70312-0.32812-0.70312-0.70312v-59.438c0-0.375 0.32812-0.70312 0.70312-0.70312h59.438c0.375 0 0.70313 0.32812 0.70313 0.70312zm380.68 73.688c0 4.9688-4.0312 9.0469-9.0469 9.0469l-285.14-0.046875c-4.9688 0-9.0469-4.0312-9.0469-9.0469 0-4.9688 4.0312-9.0469 9.0469-9.0469h285.19c4.9688 0.046875 9 4.0781 9 9.0938zm-58.125 47.766c0 4.9688-4.0312 9.0469-9.0469 9.0469l-227.02-0.046875c-4.9688 0-9.0469-4.0312-9.0469-9.0469 0-4.9688 4.0312-9.0469 9.0469-9.0469h227.06c4.9688 0.046875 9 4.0781 9 9.0938zm-323.26-72.375h-59.438c-10.312 0-18.75 8.3906-18.75 18.75v59.438c0 10.312 8.3906 18.75 18.75 18.75h59.438c10.312 0 18.75-8.3906 18.75-18.75v-59.438c0-10.312-8.3906-18.75-18.75-18.75zm0.70312 78.188c0 0.375-0.32812 0.70312-0.70312 0.70312h-59.438c-0.375 0-0.70312-0.32812-0.70312-0.70312v-59.438c0-0.375 0.32812-0.70312 0.70312-0.70312h59.438c0.375 0 0.70312 0.32812 0.70312 0.70312z"/>
</svg>
