<?xml version="1.0" encoding="UTF-8"?>
<svg width="1200pt" height="1200pt" version="1.1" viewBox="0 0 1200 1200" xmlns="http://www.w3.org/2000/svg">
 <path d="m816.6 660.48c13.199 0 23.879-10.68 23.879-23.879v-70.32c0-13.199-10.68-23.879-23.879-23.879l-42.602-0.003906c-2.5195-7.5586-5.6406-15-9.2383-22.199l30.121-30.121c9.3594-9.3594 9.3594-24.48 0-33.84l-49.68-49.68c-4.5586-4.5586-10.559-6.9609-16.922-6.9609-6.3594 0-12.359 2.5195-16.922 6.9609l-30.121 30.121c-7.1992-3.6016-14.641-6.6016-22.199-9.2383v-42.48c0-13.199-10.68-23.879-23.879-23.879h-70.32c-13.199 0-23.879 10.68-23.879 23.879v42.48c-7.5586 2.5195-15 5.6406-22.199 9.2383l-30.121-30.121c-9.3594-9.3594-24.48-9.3594-33.84 0l-49.68 49.68c-9.3594 9.3594-9.3594 24.48 0 33.84l30.121 30.121c-3.4805 7.1992-6.6016 14.641-9.2383 22.199h-42.48c-13.199 0-23.879 10.68-23.879 23.879v70.32c0 13.199 10.68 23.879 23.879 23.879h42.48c2.5195 7.5586 5.6406 15 9.2383 22.199l-30.121 30.121c-9.3594 9.3594-9.3594 24.48 0 33.84l49.68 49.68c9.3594 9.3594 24.48 9.3594 33.84 0l30.121-30.121c7.1992 3.6016 14.641 6.6016 22.199 9.2383v42.48c0 13.199 10.68 23.879 23.879 23.879h70.32c13.199 0 23.879-10.68 23.879-23.879v-42.48c7.5586-2.5195 15-5.6406 22.199-9.2383l30.121 30.121c4.5586 4.5586 10.559 6.9609 16.922 6.9609 6.3594 0 12.359-2.5195 16.922-6.9609l49.68-49.68c9.3594-9.3594 9.3594-24.48 0-33.84l-30.121-30.121c3.4805-7.1992 6.6016-14.641 9.2383-22.199zm-67.922-10.922c-2.5195 7.8008-5.7617 15.48-9.4805 22.801-4.8008 9.3594-3 20.52 4.1992 27.719l29.52 29.52-44.641 44.641-29.52-29.52c-7.3203-7.3203-18.48-9-27.84-4.1992-7.3203 3.7188-15 6.9609-22.801 9.4805-9.9609 3.2383-16.68 12.359-16.68 22.68v41.641h-63.238v-41.641c0-10.32-6.7188-19.441-16.68-22.68-7.8008-2.5195-15.48-5.7617-22.801-9.4805-9.3594-4.8008-20.52-3-27.719 4.1992l-29.52 29.52-44.641-44.641 29.52-29.52c7.3203-7.3203 9-18.48 4.1992-27.719-3.7188-7.3203-6.9609-15-9.4805-22.801-3.2383-9.9609-12.359-16.68-22.68-16.68h-41.641v-63.238h41.641c10.32 0 19.441-6.7188 22.68-16.68 2.5195-7.8008 5.7617-15.48 9.4805-22.801 4.8008-9.3594 3-20.52-4.1992-27.719l-29.52-29.52 44.641-44.641 29.52 29.52c7.3203 7.3203 18.48 9 27.719 4.1992 7.3203-3.7188 15-6.9609 22.801-9.4805 9.9609-3.2383 16.68-12.359 16.68-22.68v-41.641h63.238v41.641c0 10.32 6.7188 19.441 16.68 22.68 7.8008 2.5195 15.48 5.7617 22.801 9.4805 9.3594 4.8008 20.52 3 27.84-4.1992l29.52-29.52 44.641 44.641-29.52 29.52c-7.3203 7.3203-9 18.48-4.1992 27.719 3.7188 7.3203 6.9609 15 9.4805 22.801 3.2383 9.9609 12.359 16.68 22.68 16.68h41.641v63.238h-41.641c-10.32 0.12109-19.438 6.7227-22.68 16.68z"/>
 <path d="m600 513.24c-48.602 0-88.078 39.602-88.078 88.199 0 48.602 39.48 88.078 88.078 88.078 48.602 0 88.199-39.48 88.199-88.078-0.12109-48.598-39.598-88.199-88.199-88.199zm0 148.68c-33.359 0-60.602-27.121-60.602-60.602 0-33.48 27.121-60.602 60.602-60.602s60.602 27.238 60.602 60.602c0 33.48-27.121 60.602-60.602 60.602z"/>
 <path d="m197.52 475.32c36.719 0 67.199-26.398 73.68-61.32h65.398l15.961 36.84c2.2812 5.1602 7.3203 8.2812 12.602 8.2812 1.8008 0 3.7188-0.35938 5.3984-1.0781 6.9609-3 10.199-11.16 7.1992-18.121l-19.559-45.121c-2.1602-5.0391-7.0781-8.2812-12.602-8.2812h-74.398c-6.4805-34.801-37.078-61.199-73.68-61.199-41.398 0-75 33.602-75 75 0 41.398 33.602 75 75 75zm0-122.52c26.039 0 47.281 21.121 47.52 47.16v0.23828 0.35938c-0.12109 26.039-21.359 47.281-47.52 47.281-26.16 0-47.52-21.359-47.52-47.52 0-26.16 21.359-47.52 47.52-47.52z"/>
 <path d="m148.68 615c0.48047 0 0.83984 0.12109 1.3203 0.12109h171.12c7.5586 0 13.801-6.1211 13.801-13.801 0-7.5586-6.1211-13.801-13.801-13.801h-171c-0.48047 0-0.83984 0.12109-1.3203 0.12109-6.4805-34.922-37.078-61.32-73.68-61.32-41.52 0-75.121 33.719-75.121 75 0 41.398 33.602 75 75 75 36.719 0 67.32-26.52 73.68-61.32zm-73.68 33.84c-26.16 0-47.52-21.359-47.52-47.52 0-26.16 21.359-47.52 47.52-47.52s47.52 21.359 47.52 47.52c0 26.281-21.359 47.52-47.52 47.52z"/>
 <path d="m1125 529.08c-35.762 0-65.762 25.199-73.199 58.68-0.60156-0.12109-1.1992-0.23828-1.9219-0.23828h-171.12c-7.5586 0-13.801 6.1211-13.801 13.801 0 7.5586 6.1211 13.801 13.801 13.801h171.12c0.35938 0 0.60156-0.12109 0.83984-0.12109 5.2812 36.238 36.602 64.078 74.16 64.078 41.398 0 75-33.602 75-75 0.11719-41.398-33.484-75-74.883-75zm0 122.52c-26.16 0-47.52-21.359-47.52-47.52 0-26.16 21.359-47.52 47.52-47.52s47.52 21.359 47.52 47.52c0 26.156-21.359 47.52-47.52 47.52z"/>
 <path d="m1005.2 724.68c-37.559 0-68.762 27.84-74.16 63.961h-67.801l-15.961-36.84c-3-6.9609-11.16-10.199-18.121-7.1992-6.9609 3-10.199 11.16-7.1992 18.121l19.559 45.121c2.1602 5.0391 7.0781 8.2812 12.602 8.2812h77.762c7.5586 33.48 37.441 58.559 73.199 58.559 41.398 0 75-33.602 75-75 0.12109-41.402-33.477-75.004-74.879-75.004zm0 122.52c-26.16 0-47.52-21.359-47.52-47.52 0-26.16 21.359-47.52 47.52-47.52 26.16 0 47.52 21.359 47.52 47.52 0.003907 26.16-21.359 47.52-47.52 47.52z"/>
 <path d="m370.56 744.6c-6.9609-3-15.121 0.23828-18.121 7.1992l-15.961 36.84h-67.32c-4.0781-37.441-36-66.719-74.52-66.719-41.398 0-75 33.602-75 75s33.602 75 75 75c34.68 0 63.961-23.762 72.48-55.801h78.359c5.5195 0 10.441-3.2383 12.602-8.2812l19.559-45.238c3.125-6.8398-0.11719-15-7.0781-18zm-175.8 99.84c-26.16 0-47.52-21.359-47.52-47.52s21.359-47.52 47.52-47.52c26.16 0 47.52 21.359 47.52 47.52 0 26.277-21.359 47.52-47.52 47.52z"/>
 <path d="m829.32 458.04c1.8008 0.71875 3.6016 1.0781 5.3984 1.0781 5.2812 0 10.441-3.1211 12.602-8.2812l15.961-36.84h65.039c5.2812 36.121 36.602 63.961 74.16 63.961 41.398 0 75-33.602 75-75 0-41.398-33.602-75-75-75-35.641 0-65.641 25.078-73.199 58.441h-75.121c-5.5195 0-10.441 3.2383-12.602 8.2812l-19.559 45.238c-2.8789 7.082 0.35938 15.121 7.3203 18.121zm173.16-102.48c26.16 0 47.52 21.359 47.52 47.52s-21.359 47.52-47.52 47.52c-26.16 0-47.52-21.359-47.52-47.52 0-26.156 21.359-47.52 47.52-47.52z"/>
</svg>
